<?xml version="1.0" standalone="no"?>
<!DOCTYPE svg PUBLIC "-//W3C//DTD SVG 20010904//EN"
 "http://www.w3.org/TR/2001/REC-SVG-20010904/DTD/svg10.dtd">
<svg version="1.0" xmlns="http://www.w3.org/2000/svg"
 width="130.000000pt" height="130.000000pt" viewBox="0 0 130.000000 130.000000"
 preserveAspectRatio="xMidYMid meet">
<metadata>
Created by potrace 1.11, written by Peter Selinger 2001-2013
</metadata>
<g transform="translate(0.000000,130.000000) scale(0.100000,-0.100000)"
fill="#000000" stroke="none">
<path d="M73 1275 c-18 -8 -42 -29 -53 -47 -19 -32 -20 -49 -20 -571 0 -593 0
-589 62 -627 32 -19 49 -20 573 -20 604 0 592 -1 628 70 16 32 17 79 17 575
-1 522 -1 542 -21 573 -37 62 -33 62 -621 62 -435 -1 -539 -3 -565 -15z"/>
</g>
</svg>
